<svg width="8" height="7" viewBox="0 0 8 7" fill="none" xmlns="http://www.w3.org/2000/svg">
<path d="M4.62942 6.1L7.18276 1.67334C7.28302 1.50515 7.33686 1.31337 7.33879 1.11757C7.34072 0.921778 7.29067 0.728976 7.19374 0.558845C7.09681 0.388713 6.95648 0.247344 6.78707 0.149166C6.61766 0.0509876 6.42523 -0.0004843 6.22942 3.43423e-06H1.10942C0.913618 -0.0004843 0.72119 0.0509876 0.551777 0.149166C0.382363 0.247344 0.242032 0.388713 0.145104 0.558845C0.0481768 0.728976 -0.00187617 0.921778 5.37718e-05 1.11757C0.00198372 1.31337 0.0558274 1.50515 0.15609 1.67334L2.70942 6.1C2.80634 6.26899 2.94614 6.4094 3.1147 6.50705C3.28327 6.60469 3.47462 6.65611 3.66942 6.65611C3.86423 6.65611 4.05558 6.60469 4.22414 6.50705C4.39271 6.4094 4.53251 6.26899 4.62942 6.1Z" fill="#ED6455"></path>
</svg>