<svg width="22" height="21" viewBox="0 0 22 21" fill="none" xmlns="http://www.w3.org/2000/svg">
<path d="M12.3495 1.11139L14.0429 4.56472C14.1865 4.85546 14.3988 5.1069 14.6612 5.29737C14.9237 5.48784 15.2286 5.61162 15.5495 5.65805L19.3495 6.20472C19.7191 6.25838 20.0663 6.41444 20.3517 6.65522C20.6371 6.89601 20.8495 7.2119 20.9646 7.56714C21.0798 7.92237 21.0932 8.30275 21.0034 8.66522C20.9135 9.02769 20.724 9.35776 20.4562 9.61805L17.7095 12.2847C17.47 12.5149 17.2919 12.8015 17.1918 13.1183C17.0916 13.4351 17.0725 13.772 17.1362 14.0981L17.7762 17.8847C17.8378 18.2513 17.796 18.6277 17.6555 18.9718C17.5151 19.3159 17.2815 19.6141 16.9811 19.8329C16.6806 20.0517 16.3251 20.1824 15.9545 20.2104C15.5839 20.2384 15.2128 20.1625 14.8829 19.9914L11.4829 18.1781C11.1948 18.0274 10.8746 17.9486 10.5495 17.9486C10.2245 17.9486 9.90423 18.0274 9.6162 18.1781L6.2162 19.9647C5.88628 20.1359 5.51519 20.2117 5.14457 20.1837C4.77395 20.1557 4.41847 20.025 4.118 19.8062C3.81754 19.5874 3.58398 19.2893 3.44353 18.9452C3.30308 18.601 3.26129 18.2246 3.32287 17.8581L3.96287 14.0981C4.01961 13.7781 3.99701 13.4492 3.89705 13.14C3.79709 12.8308 3.62283 12.5509 3.38953 12.3247L0.642868 9.65805C0.36306 9.39957 0.16289 9.06655 0.0659063 8.69817C-0.0310778 8.32979 -0.0208428 7.94138 0.0954079 7.57862C0.211659 7.21586 0.429089 6.89385 0.722123 6.65046C1.01516 6.40707 1.3716 6.25242 1.74953 6.20472L5.54953 5.65805C5.8705 5.61162 6.17535 5.48784 6.43783 5.29737C6.7003 5.1069 6.91253 4.85546 7.0562 4.56472L8.74953 1.11139C8.9169 0.777369 9.17391 0.49651 9.4918 0.300232C9.8097 0.103954 10.1759 0 10.5495 0C10.9231 0 11.2894 0.103954 11.6073 0.300232C11.9252 0.49651 12.1822 0.777369 12.3495 1.11139Z" fill="black"></path>
</svg>